<mxfile host="65bd71144e">
    <diagram id="dlX6aF1cl96i4wyMpFfe" name="Middleware">
        <mxGraphModel dx="788" dy="791" grid="1" gridSize="10" guides="1" tooltips="1" connect="1" arrows="1" fold="1" page="1" pageScale="1" pageWidth="1169" pageHeight="827" math="0" shadow="0">
            <root>
                <mxCell id="0"/>
                <mxCell id="1" parent="0"/>
                <mxCell id="5" style="edgeStyle=none;html=1;" edge="1" parent="1" source="2">
                    <mxGeometry relative="1" as="geometry">
                        <mxPoint x="360" y="320" as="targetPoint"/>
                    </mxGeometry>
                </mxCell>
                <mxCell id="2" value="LoggerMiddleware" style="rounded=1;whiteSpace=wrap;html=1;" vertex="1" parent="1">
                    <mxGeometry x="150" y="290" width="120" height="60" as="geometry"/>
                </mxCell>
                <mxCell id="3" value="" style="endArrow=classic;html=1;entryX=0;entryY=0.5;entryDx=0;entryDy=0;" edge="1" parent="1" target="2">
                    <mxGeometry width="50" height="50" relative="1" as="geometry">
                        <mxPoint x="40" y="320" as="sourcePoint"/>
                        <mxPoint x="110" y="310" as="targetPoint"/>
                    </mxGeometry>
                </mxCell>
                <mxCell id="4" value="Request" style="edgeLabel;html=1;align=center;verticalAlign=middle;resizable=0;points=[];" vertex="1" connectable="0" parent="3">
                    <mxGeometry x="-0.36" y="-1" relative="1" as="geometry">
                        <mxPoint as="offset"/>
                    </mxGeometry>
                </mxCell>
                <mxCell id="6" value="" style="endArrow=classic;html=1;exitX=0.5;exitY=1;exitDx=0;exitDy=0;edgeStyle=elbowEdgeStyle;" edge="1" parent="1" source="7">
                    <mxGeometry width="50" height="50" relative="1" as="geometry">
                        <mxPoint x="360" y="400" as="sourcePoint"/>
                        <mxPoint x="40" y="400" as="targetPoint"/>
                        <Array as="points">
                            <mxPoint x="420" y="380"/>
                        </Array>
                    </mxGeometry>
                </mxCell>
                <mxCell id="8" value="Response" style="edgeLabel;html=1;align=center;verticalAlign=middle;resizable=0;points=[];" vertex="1" connectable="0" parent="6">
                    <mxGeometry x="0.8279" y="-3" relative="1" as="geometry">
                        <mxPoint as="offset"/>
                    </mxGeometry>
                </mxCell>
                <mxCell id="7" value="Controller" style="rounded=1;whiteSpace=wrap;html=1;" vertex="1" parent="1">
                    <mxGeometry x="360" y="290" width="120" height="60" as="geometry"/>
                </mxCell>
            </root>
        </mxGraphModel>
    </diagram>
    <diagram id="wyH8B7EL9PN7x6KiLbOj" name="AuthenticationMiddleware">
        <mxGraphModel dx="788" dy="791" grid="1" gridSize="10" guides="1" tooltips="1" connect="1" arrows="1" fold="1" page="1" pageScale="1" pageWidth="1169" pageHeight="827" math="0" shadow="0">
            <root>
                <mxCell id="q6V9TY7PBiQlFSF_nfSo-0"/>
                <mxCell id="q6V9TY7PBiQlFSF_nfSo-1" parent="q6V9TY7PBiQlFSF_nfSo-0"/>
                <mxCell id="q6V9TY7PBiQlFSF_nfSo-2" style="edgeStyle=none;html=1;" edge="1" parent="q6V9TY7PBiQlFSF_nfSo-1" source="q6V9TY7PBiQlFSF_nfSo-3">
                    <mxGeometry relative="1" as="geometry">
                        <mxPoint x="360" y="320" as="targetPoint"/>
                    </mxGeometry>
                </mxCell>
                <mxCell id="q6V9TY7PBiQlFSF_nfSo-3" value="LoggerMiddleware" style="rounded=1;whiteSpace=wrap;html=1;" vertex="1" parent="q6V9TY7PBiQlFSF_nfSo-1">
                    <mxGeometry x="150" y="290" width="120" height="60" as="geometry"/>
                </mxCell>
                <mxCell id="q6V9TY7PBiQlFSF_nfSo-4" value="" style="endArrow=classic;html=1;entryX=0;entryY=0.5;entryDx=0;entryDy=0;" edge="1" parent="q6V9TY7PBiQlFSF_nfSo-1" target="q6V9TY7PBiQlFSF_nfSo-3">
                    <mxGeometry width="50" height="50" relative="1" as="geometry">
                        <mxPoint x="40" y="320" as="sourcePoint"/>
                        <mxPoint x="110" y="310" as="targetPoint"/>
                    </mxGeometry>
                </mxCell>
                <mxCell id="q6V9TY7PBiQlFSF_nfSo-5" value="Request" style="edgeLabel;html=1;align=center;verticalAlign=middle;resizable=0;points=[];" vertex="1" connectable="0" parent="q6V9TY7PBiQlFSF_nfSo-4">
                    <mxGeometry x="-0.36" y="-1" relative="1" as="geometry">
                        <mxPoint as="offset"/>
                    </mxGeometry>
                </mxCell>
                <mxCell id="q6V9TY7PBiQlFSF_nfSo-6" value="" style="endArrow=classic;html=1;exitX=0.5;exitY=1;exitDx=0;exitDy=0;" edge="1" parent="q6V9TY7PBiQlFSF_nfSo-1" source="q6V9TY7PBiQlFSF_nfSo-8">
                    <mxGeometry width="50" height="50" relative="1" as="geometry">
                        <mxPoint x="360" y="400" as="sourcePoint"/>
                        <mxPoint x="40" y="400" as="targetPoint"/>
                        <Array as="points">
                            <mxPoint x="760" y="400"/>
                        </Array>
                    </mxGeometry>
                </mxCell>
                <mxCell id="q6V9TY7PBiQlFSF_nfSo-7" value="Response" style="edgeLabel;html=1;align=center;verticalAlign=middle;resizable=0;points=[];" vertex="1" connectable="0" parent="q6V9TY7PBiQlFSF_nfSo-6">
                    <mxGeometry x="0.8279" y="-3" relative="1" as="geometry">
                        <mxPoint as="offset"/>
                    </mxGeometry>
                </mxCell>
                <mxCell id="q6V9TY7PBiQlFSF_nfSo-8" value="Controller" style="rounded=1;whiteSpace=wrap;html=1;" vertex="1" parent="q6V9TY7PBiQlFSF_nfSo-1">
                    <mxGeometry x="700" y="290" width="120" height="60" as="geometry"/>
                </mxCell>
                <mxCell id="q6V9TY7PBiQlFSF_nfSo-10" style="edgeStyle=none;html=1;entryX=0;entryY=0.5;entryDx=0;entryDy=0;" edge="1" parent="q6V9TY7PBiQlFSF_nfSo-1" source="q6V9TY7PBiQlFSF_nfSo-9" target="q6V9TY7PBiQlFSF_nfSo-8">
                    <mxGeometry relative="1" as="geometry"/>
                </mxCell>
                <mxCell id="q6V9TY7PBiQlFSF_nfSo-13" value="Authenticated" style="edgeLabel;html=1;align=center;verticalAlign=middle;resizable=0;points=[];" vertex="1" connectable="0" parent="q6V9TY7PBiQlFSF_nfSo-10">
                    <mxGeometry x="-0.2667" y="3" relative="1" as="geometry">
                        <mxPoint x="24" y="3" as="offset"/>
                    </mxGeometry>
                </mxCell>
                <mxCell id="q6V9TY7PBiQlFSF_nfSo-11" style="edgeStyle=none;html=1;" edge="1" parent="q6V9TY7PBiQlFSF_nfSo-1" source="q6V9TY7PBiQlFSF_nfSo-9">
                    <mxGeometry relative="1" as="geometry">
                        <mxPoint x="440" y="400" as="targetPoint"/>
                    </mxGeometry>
                </mxCell>
                <mxCell id="q6V9TY7PBiQlFSF_nfSo-12" value="Not Authenticated" style="edgeLabel;html=1;align=center;verticalAlign=middle;resizable=0;points=[];" vertex="1" connectable="0" parent="q6V9TY7PBiQlFSF_nfSo-11">
                    <mxGeometry x="-0.24" y="2" relative="1" as="geometry">
                        <mxPoint as="offset"/>
                    </mxGeometry>
                </mxCell>
                <mxCell id="q6V9TY7PBiQlFSF_nfSo-9" value="AuthenticationMiddleware" style="rounded=1;whiteSpace=wrap;html=1;" vertex="1" parent="q6V9TY7PBiQlFSF_nfSo-1">
                    <mxGeometry x="360" y="290" width="160" height="60" as="geometry"/>
                </mxCell>
            </root>
        </mxGraphModel>
    </diagram>
</mxfile>